HIERARCHY
ROOT hip
{
	OFFSET 0.000000 0.000000 0.000000 
	CHANNELS 6 Xposition Yposition Zposition Xrotation Zrotation Yrotation
	JOINT abdomen
	{
		OFFSET 0.000000 3.402643 0.000000 
		CHANNELS 3 Xrotation Zrotation Yrotation
		JOINT chest
		{
			OFFSET 0.000000 8.438565 -0.680529 
			CHANNELS 3 Xrotation Zrotation Yrotation
			JOINT neck
			{
				OFFSET 0.000000 10.207942 -0.272212 
				CHANNELS 3 Xrotation Zrotation Yrotation
				JOINT head
				{
					OFFSET 0.000000 3.130431 0.000000 
					CHANNELS 3 Xrotation Zrotation Yrotation
					End Site
					{
						OFFSET 0.000000 3.130435 0.000000 
					}
				}
			}
			JOINT lCollar
			{
				OFFSET 3.470700 6.669187 -0.816635 
				CHANNELS 3 Yrotation Zrotation Xrotation
				JOINT lShldr
				{
					OFFSET 3.198488 0.000000 0.000000 
					CHANNELS 3 Zrotation Yrotation Xrotation
					JOINT lForeArm
					{
						OFFSET 10.139888 0.000000 0.000000 
						CHANNELS 3 Yrotation Zrotation Xrotation
						JOINT lHand
						{
							OFFSET 8.370511 0.000000 0.000000 
							CHANNELS 3 Zrotation Yrotation Xrotation
							End Site
							{
								OFFSET 4.083176 0.000000 0.000000 
							}
						}
					}
				}
			}
			JOINT rCollar
			{
				OFFSET -3.470700 6.669187 -0.816635 
				CHANNELS 3 Yrotation Zrotation Xrotation
				JOINT rShldr
				{
					OFFSET -3.198488 0.000000 0.000000 
					CHANNELS 3 Zrotation Yrotation Xrotation
					JOINT rForeArm
					{
						OFFSET -10.139888 0.000000 0.000000 
						CHANNELS 3 Yrotation Zrotation Xrotation
						JOINT rHand
						{
							OFFSET -8.370511 0.000000 0.000000 
							CHANNELS 3 Zrotation Yrotation Xrotation
							End Site
							{
								OFFSET -4.083176 0.000000 0.000000 
							}
						}
					}
				}
			}
		}
	}
	JOINT lThigh
	{
		OFFSET 5.308129 -1.633274 1.361059 
		CHANNELS 3 Xrotation Zrotation Yrotation
		JOINT lShin
		{
			OFFSET -2.041588 -20.007561 0.000000 
			CHANNELS 3 Xrotation Zrotation Yrotation
			JOINT lFoot
			{
				OFFSET 0.000000 -19.190928 -1.224953 
				CHANNELS 3 Xrotation Yrotation Zrotation
				End Site
				{
					OFFSET 0.000000 -2.449906 4.627600 
				}
			}
		}
	}
	JOINT rThigh
	{
		OFFSET -5.308129 -1.633274 1.361059 
		CHANNELS 3 Xrotation Zrotation Yrotation
		JOINT rShin
		{
			OFFSET 2.041588 -20.007561 0.000000 
			CHANNELS 3 Xrotation Zrotation Yrotation
			JOINT rFoot
			{
				OFFSET 0.000000 -19.190928 -1.224953 
				CHANNELS 3 Xrotation Yrotation Zrotation
				End Site
				{
					OFFSET 0.000000 -2.449906 4.627600 
				}
			}
		}
	}
}
MOTION
Frames: 9
Frame Time: 0.016667
98.292351 38.770630 80.292778 -2.031250 0.117114 73.101303 -22.589300 4.566030 -14.597000 14.006900 12.391800 -7.025200 19.403090 2.989729 5.179895 13.727000 7.258420 -1.542290 2.000000 -2.000000 0.000000 -124.611000 -37.744900 -83.947502 60.850101 -0.281444 0.119454 0.045758 -0.018962 -143.709000 -2.000000 2.000000 0.000000 83.585297 -18.953100 133.177994 -35.537498 0.326100 0.079467 -0.083384 0.076139 -165.251999 -15.391689 -5.055317 22.501040 67.466507 0.896834 4.106155 -0.237534 -29.491615 -3.354624 -40.452015 7.883022 -7.699017 55.283543 -0.764794 -4.108178 -11.638916 -8.889868 -2.229759 
98.920326 39.118237 80.166840 -2.334020 -0.302483 74.084602 -22.600300 4.987750 -13.533300 13.987600 11.964200 -6.414980 18.623888 3.948774 6.065408 13.387500 7.478370 -2.048900 2.000000 -2.000000 0.000000 -123.338997 -37.823200 -83.181999 62.930199 -0.277066 0.121792 0.046908 -0.026918 -146.580002 -2.000000 2.000000 0.000000 83.375999 -17.075300 131.436005 -32.529598 0.330116 0.073520 -0.082524 0.074521 -164.597000 -16.176804 -2.655310 21.567425 69.410500 0.704090 4.181023 -4.384831 -27.169827 -5.044392 -39.638424 7.498563 -8.133269 54.547497 -0.812532 -4.064465 -11.988795 -9.067521 -2.481947 
99.428658 39.521610 79.973289 -2.460940 -0.107323 74.233101 -22.497200 5.406710 -12.258000 13.721800 11.812400 -5.778760 18.125639 4.747174 7.029670 13.178900 7.820810 -2.470930 2.000000 -2.000000 0.000000 -120.709000 -37.285599 -85.519699 64.141197 -0.274479 0.123079 0.047885 -0.032133 -148.473999 -2.000000 2.000000 0.000000 82.129204 -15.867700 133.505997 -30.635099 0.332483 0.069669 -0.082958 0.075343 -164.929001 -16.617279 -0.542916 20.977074 70.951271 0.563785 4.233152 -7.389101 -22.481863 -5.383336 -38.219627 7.449540 -7.618383 53.427975 -0.915322 -4.002826 -12.092491 -9.465826 -2.705445 
99.936981 39.925121 79.779732 -2.587890 0.078045 74.390999 -22.382601 5.815290 -10.988200 13.456000 11.670100 -5.144350 17.654100 5.531029 8.006419 12.970100 8.153900 -2.896920 2.000000 -2.000000 0.000000 -118.127998 -36.669998 -87.808601 65.342300 -0.271887 0.124302 0.049033 -0.037312 -150.369003 -2.000000 2.000000 0.000000 80.931000 -14.611300 135.529007 -28.740499 0.334722 0.065742 -0.083397 0.076163 -165.261993 -17.104895 1.556426 20.373611 72.531593 0.407902 4.284414 -10.290696 -17.768780 -5.472894 -36.755253 7.367694 -7.090255 52.191441 -0.990575 -3.929682 -12.100205 -9.872522 -2.946080 
100.390495 40.324135 79.557533 -2.607420 -0.009756 74.590302 -22.349100 5.953470 -9.972600 13.200700 11.130700 -4.640030 17.330940 6.116801 8.589907 12.865600 8.320550 -3.189640 2.000000 -2.000000 0.000000 -114.292999 -36.103600 -92.050797 65.635300 -0.271251 0.124592 0.049850 -0.040575 -151.570007 -2.000000 2.000000 0.000000 79.721901 -12.924500 137.056000 -27.734699 0.335858 0.063627 -0.079853 0.069192 -162.468994 -18.069553 3.184027 18.912636 73.229965 0.314104 4.324834 -11.062606 -12.870072 -4.410360 -35.580513 7.202856 -6.633507 50.797424 -1.090650 -3.851689 -11.985914 -10.225440 -3.124099 
100.844002 40.723267 79.335213 -2.626960 -0.097554 74.799400 -22.328199 6.087990 -8.968550 12.925600 10.600800 -4.135780 17.010927 6.719970 9.156096 12.760900 8.477610 -3.484460 2.000000 -2.000000 0.000000 -110.544998 -35.303501 -96.195503 65.928299 -0.270614 0.124879 0.050742 -0.043846 -152.781006 -2.000000 2.000000 0.000000 78.561501 -11.198600 138.533997 -26.728800 0.336956 0.061493 -0.076664 0.062081 -159.684998 -19.074959 4.793768 17.406546 73.956787 0.232397 4.350443 -11.962316 -7.948352 -3.325737 -34.416534 7.035776 -6.181537 49.403057 -1.192983 -3.771102 -11.862666 -10.569291 -3.273839 
101.241905 41.095287 79.125481 -2.421900 -0.253679 75.362297 -22.450001 5.965740 -8.399940 12.568600 10.185500 -3.890520 16.780832 7.136492 9.434457 12.683200 8.527800 -3.684020 2.000000 -2.000000 0.000000 -106.431000 -34.768600 -101.906998 64.688004 -0.273302 0.123643 0.050469 -0.042872 -152.419998 -2.000000 2.000000 0.000000 77.556503 -9.598590 139.425003 -27.392900 0.336235 0.062904 -0.074154 0.055723 -157.244003 -20.437580 5.744887 15.110856 73.438286 0.247472 4.352024 -13.265747 -6.535963 -3.030541 -33.412346 6.572063 -5.878502 47.901344 -1.275089 -3.681933 -11.865954 -10.976013 -3.514145 
101.639809 41.467308 78.915627 -2.216860 -0.429366 75.934601 -22.580900 5.856060 -7.827000 12.212100 9.770550 -3.632130 16.535288 7.552192 9.713364 12.615200 8.577760 -3.882270 2.000000 -2.000000 0.000000 -102.431999 -33.912601 -107.512001 63.447800 -0.275964 0.122349 0.050201 -0.041896 -152.057999 -2.000000 2.000000 0.000000 76.571098 -7.979070 140.287994 -28.047199 0.335509 0.064287 -0.071916 0.059029 -154.802994 -21.896019 6.667302 12.767310 72.968933 0.252129 4.352841 -14.571485 -5.106629 -2.701119 -32.469734 6.095310 -5.579468 46.566658 -1.362795 -3.625355 -11.943285 -11.358850 -3.737359 
102.073540 41.802200 78.675560 -1.875010 -0.156166 76.382103 -22.421301 5.575020 -7.380780 12.223800 9.297090 -3.435150 16.226852 7.748429 10.202265 12.511000 8.754240 -3.959080 2.000000 -2.000000 0.000000 -98.680000 -33.302898 -114.040001 60.957500 -0.281220 0.119579 0.049651 -0.039807 -151.287003 -2.000000 2.000000 0.000000 75.665497 -6.713140 142.223007 -30.869499 0.332197 0.070150 -0.073445 0.053769 -156.501999 -22.112803 6.898435 10.217882 71.027489 0.403938 4.313093 -15.358305 -4.914676 -2.663632 -31.201035 5.250602 -5.392556 45.522278 -1.463065 -3.513588 -11.815214 -11.351007 -3.794610 
